<?xml version="1.0" encoding="UTF-8" standalone="no"?>
<!-- Created with Inkscape (http://www.inkscape.org/) -->

<svg
   xmlns:dc="http://purl.org/dc/elements/1.1/"
   xmlns:cc="http://creativecommons.org/ns#"
   xmlns:rdf="http://www.w3.org/1999/02/22-rdf-syntax-ns#"
   xmlns:svg="http://www.w3.org/2000/svg"
   xmlns="http://www.w3.org/2000/svg"
   xmlns:sodipodi="http://sodipodi.sourceforge.net/DTD/sodipodi-0.dtd"
   xmlns:inkscape="http://www.inkscape.org/namespaces/inkscape"
   width="120.4851mm"
   height="120.4851mm"
   viewBox="0 0 120.48509 120.4851"
   version="1.1"
   id="svg8"
   inkscape:version="0.92.3 (2405546, 2018-03-11)"
   sodipodi:docname="logoBaquara.svg">
  <defs
     id="defs2">
    <style
       id="style6"
       type="text/css">
   
    .str0 {stroke:#1F1A17;stroke-width:76}
    .str2 {stroke:#1F1A17;stroke-width:281}
    .str1 {stroke:#72706F;stroke-width:352}
    .str3 {stroke:#1F1A17;stroke-width:704}
    .fil3 {fill:none}
    .fil0 {fill:#BFD8FF}
    .fil1 {fill:#F4E2BA}
    .fil2 {fill:#FFF3E3}
    .fil4 {fill:#00FF00}
    .fil5 {fill:#FF9900}
    .fil6 {fill:#Ff0000}
    .fil7 {fill:#00FFFF}
    .fil8 {fill:#FFFF00}
   
  </style>
    <style
       id="style6-7"
       type="text/css">
   
    .str0 {stroke:#1F1A17;stroke-width:76}
    .str2 {stroke:#1F1A17;stroke-width:281}
    .str1 {stroke:#72706F;stroke-width:352}
    .str3 {stroke:#1F1A17;stroke-width:704}
    .fil3 {fill:none}
    .fil0 {fill:#BFD8FF}
    .fil1 {fill:#F4E2BA}
    .fil2 {fill:#FFF3E3}
    .fil4 {fill:#00FF00}
    .fil5 {fill:#FF9900}
    .fil6 {fill:#Ff0000}
    .fil7 {fill:#00FFFF}
    .fil8 {fill:#FFFF00}
   
  </style>
    <style
       id="style6-6"
       type="text/css">
   
    .str0 {stroke:#1F1A17;stroke-width:76}
    .str2 {stroke:#1F1A17;stroke-width:281}
    .str1 {stroke:#72706F;stroke-width:352}
    .str3 {stroke:#1F1A17;stroke-width:704}
    .fil3 {fill:none}
    .fil0 {fill:#BFD8FF}
    .fil1 {fill:#F4E2BA}
    .fil2 {fill:#FFF3E3}
    .fil4 {fill:#00FF00}
    .fil5 {fill:#FF9900}
    .fil6 {fill:#Ff0000}
    .fil7 {fill:#00FFFF}
    .fil8 {fill:#FFFF00}
   
  </style>
    <clipPath
       clipPathUnits="userSpaceOnUse"
       id="clipPath1415">
      <rect
         style="fill:#d7d3d3;fill-opacity:1;stroke:#ffffff;stroke-width:10;stroke-linecap:round;stroke-linejoin:round;stroke-miterlimit:4;stroke-dasharray:none;stroke-dashoffset:0;stroke-opacity:1"
         id="rect1417"
         width="251303.38"
         height="221552.09"
         x="-25029.816"
         y="-9653.0986" />
    </clipPath>
    <clipPath
       clipPathUnits="userSpaceOnUse"
       id="clipPath1529">
      <text
         xml:space="preserve"
         style="font-style:normal;font-variant:normal;font-weight:normal;font-stretch:normal;font-size:10.58333302px;line-height:1.25;font-family:Anton;-inkscape-font-specification:Anton;letter-spacing:0px;word-spacing:0px;fill:#000000;fill-opacity:1;stroke:none;stroke-width:0.26458332"
         x="-23.91795"
         y="105.12555"
         id="text1537"><tspan
           sodipodi:role="line"
           id="tspan1533"
           x="-23.91795"
           y="105.12555"
           style="font-size:70.55555725px;stroke-width:0.26458332">B<tspan
   style="font-size:35.27777863px;stroke-width:0.26458332"
   id="tspan1531">AQUARA</tspan></tspan><tspan
           sodipodi:role="line"
           x="-23.91795"
           y="139.30104"
           style="stroke-width:0.26458332"
           id="tspan1535" /></text>
    </clipPath>
    <clipPath
       clipPathUnits="userSpaceOnUse"
       id="clipPath1529-0">
      <text
         xml:space="preserve"
         style="font-style:normal;font-variant:normal;font-weight:normal;font-stretch:normal;font-size:10.58333302px;line-height:1.25;font-family:Anton;-inkscape-font-specification:Anton;letter-spacing:0px;word-spacing:0px;fill:#000000;fill-opacity:1;stroke:none;stroke-width:0.26458332"
         x="-23.91795"
         y="105.12555"
         id="text1537-6"><tspan
           sodipodi:role="line"
           id="tspan1533-1"
           x="-23.91795"
           y="105.12555"
           style="font-size:70.55555725px;stroke-width:0.26458332">B<tspan
   style="font-size:35.27777863px;stroke-width:0.26458332"
   id="tspan1531-5">AQUARA</tspan></tspan><tspan
           sodipodi:role="line"
           x="-23.91795"
           y="139.30104"
           style="stroke-width:0.26458332"
           id="tspan1535-9" /></text>
    </clipPath>
    <clipPath
       clipPathUnits="userSpaceOnUse"
       id="clipPath850">
      <text
         xml:space="preserve"
         style="font-style:normal;font-variant:normal;font-weight:normal;font-stretch:normal;font-size:10.58333302px;line-height:0.80000001;font-family:Anton;-inkscape-font-specification:Anton;letter-spacing:0px;word-spacing:0px;fill:#00cb00;fill-opacity:1;stroke:none;stroke-width:0.26458332"
         x="8.6354771"
         y="71.823761"
         id="text862"><tspan
           sodipodi:role="line"
           id="tspan854"
           x="8.6354771"
           y="71.823761"
           style="font-size:70.55555725px;line-height:0.80000001;fill:#00cb00;fill-opacity:1;stroke-width:0.26458332">B<tspan
   style="font-size:35.27777863px;line-height:0.80000001;fill:#00cb00;fill-opacity:1;stroke-width:0.26458332"
   id="tspan852">AC</tspan></tspan><tspan
           sodipodi:role="line"
           x="8.6354771"
           y="104.42986"
           style="font-size:70.55555725px;line-height:0.80000001;fill:#00cb00;fill-opacity:1;stroke-width:0.26458332"
           id="tspan858"><tspan
             style="font-size:35.27777863px;line-height:0.80000001;fill:#00cb00;fill-opacity:1;stroke-width:0.26458332"
             id="tspan856">UARA.</tspan></tspan><tspan
           sodipodi:role="line"
           x="8.6354771"
           y="115.96523"
           style="line-height:0.80000001;fill:#00cb00;fill-opacity:1;stroke-width:0.26458332"
           id="tspan860" /></text>
    </clipPath>
  </defs>
  <sodipodi:namedview
     id="base"
     pagecolor="#ffffff"
     bordercolor="#666666"
     borderopacity="1.0"
     inkscape:pageopacity="0.0"
     inkscape:pageshadow="2"
     inkscape:zoom="0.35355339"
     inkscape:cx="-308.84961"
     inkscape:cy="336.3911"
     inkscape:document-units="mm"
     inkscape:current-layer="layer4"
     showgrid="false"
     fit-margin-top="0"
     fit-margin-left="0"
     fit-margin-right="0"
     fit-margin-bottom="0"
     inkscape:window-width="1366"
     inkscape:window-height="670"
     inkscape:window-x="0"
     inkscape:window-y="27"
     inkscape:window-maximized="1" />
  <metadata
     id="metadata5">
    <rdf:RDF>
      <cc:Work
         rdf:about="">
        <dc:format>image/svg+xml</dc:format>
        <dc:type
           rdf:resource="http://purl.org/dc/dcmitype/StillImage" />
        <dc:title />
      </cc:Work>
    </rdf:RDF>
  </metadata>
  <g
     inkscape:groupmode="layer"
     id="layer2"
     inkscape:label="Layer 2"
     transform="translate(12.079031,2.3026314)"
     style="display:none">
    <path
       style="fill:#34c200;fill-opacity:1;stroke:none;stroke-width:0.26458332px;stroke-linecap:butt;stroke-linejoin:miter;stroke-opacity:1"
       d="m 24.894397,106.972 -3.78177,1.62952 -0.850072,0.13728 -0.936055,1.10185 -1.091318,-0.82964 -0.474068,-1.42985 -0.574185,0.15396 -1.984701,-0.71734 -1.171216,0.96613 c 0,0 0.264795,-2.38929 -0.481078,-0.84911 -0.745872,1.54018 -0.745872,1.54018 -0.745872,1.54018 l -0.732836,0.57659 -0.918149,0.89771 -0.445125,1.24218 -1.241705,0.83975 0.05788,0.88994 1.577823,-0.26035 0.435282,1.15083 0.676188,1.10424 0.226239,0.57283 1.751009,1.19613 -4.246982,-0.0381 -0.948826,-0.16171 -0.397414,1.0841 -3.173257,2.20852 -0.831503,0.74834 -0.09491,1.40167 -1.391162,0.28237 -0.43572,-0.67995 0.117018,-1.11761 -1.127705,0.049 -0.639987,-0.96924 -0.03126,-0.58907 0.254608,-1.00977 -0.149504,-2.04226 -0.996458,-1.21714 -1.158795,-1.28285 -1.565211,-0.50323 -1.6679238,1.20743 -1.634215,1.66914 -2.1757799,0.52936 -1.447463,0.20681 0.70132,1.06147 -0.169593,0.51622 -1.8362473,0.5104 -1.446755,0.008 -1.313328,-0.26106 -1.104192,0.76459 -1.554719,0.14491 -1.173144,1.09333 -0.690898,3.29921 -0.554346,2.32165 -1.561103,-1.0297 -0.595115,-1.81409 -1.420144,-2.19032 -1.172356,-0.31912 -1.187552,-0.5144 -0.322076,-2.21334 -0.212276,-0.99326 -0.873406,-0.21854 -2.137738,-0.74838 -1.602647,-0.43913 -4.432422,0.0117 -2.576789,-0.35923 -1.421457,-0.77771 -0.634594,0.60488 -1.016867,-0.41545 -1.296949,-1.19119 -1.150511,-0.30696 -0.606064,1.04939 -6.460723,-0.25929 -2.873104,1.16908 -6.399652,-2.39405 -3.271443,-1.05986 -3.410356,0.51579 -3.513804,-6.82522 1.532786,-5.896725 1.898273,-3.116151 0.858168,-3.4167 1.226643,-2.71872 0.517889,-0.22952 0.480629,-1.17907 -0.629439,-3.5612 -1.24083,-2.87188 -0.229214,-4.03003 0.36867,-1.999879 0.03137,-1.909446 -0.517496,-1.726226 1.027321,-3.462059 0.782168,-2.889526 -0.30342,-1.131562 1.514742,-1.238991 0.341017,-1.630401 2.251902,-0.785151 3.34928,-0.880079 1.261714,-1.369925 1.083225,-1.159883 1.67243,-1.190618 1.763179,-1.595603 1.526826,-2.002424 1.14356,-2.352381 0.06715,-1.303567 -0.232592,-1.675922 -0.716858,-2.27022 -0.183906,-2.575865 1.697645,-2.446896 0.669835,-2.768749 0.60886,-2.11835 1.447059,-2.434329 1.45573,-1.729959 0.284155,-1.506473 1.633333,-3.22644 0.520299,0.657275 0.123888,1.071022 -0.728104,1.064661 1.156381,0.39605 1.463385,1.001283 2.330413,0.860011 2.704925,0.904311 0.421442,-0.656397 2.999196,1.730863 1.766158,-0.908291 -3.737276,6.995199 -3.200354,3.392672 -0.271374,2.499163 1.63032,1.554534 1.285833,-0.471484 0.208951,2.062354 0.316777,1.92477 1.408229,0.255884 1.497623,-0.49224 1.287407,3.112794 0.806561,0.779856 1.648441,0.13741 0.927858,-0.792191 2.163178,-0.03665 0.580622,-0.264368 0.426042,2.330179 0.980175,2.036315 0.07727,1.029464 0.67151,1.03849 -0.411605,3.780095 1.062046,1.598234 1.740377,0.547478 0.516573,1.18308 0.178131,1.002417 4.364695,-1.007628 1.6290473,2.76779 -0.0019,1.612104 0.664013,1.39694 1.534312,0.656785 1.8052059,-0.357355 1.201087,0.293974 1.069606,0.274036 1.8438218,0.664457 2.350548,-0.213587 3.232747,1.251547 0.970106,1.188168 0.699649,1.73144 0.196392,1.54092 9.902409,-5.792861 3.910685,2.885202 5.759631,-0.330922 2.381401,2.602091 0.223135,4.88307 -2.247225,5.32812 c 0,0 -3.970979,-7.518 -3.787149,1.5403 0.183838,9.058286 0.183838,9.058286 0.183838,9.058286 l 2.610493,3.59084 -2.062797,0.67983 0.297678,1.043 1.637273,-0.24025 c 0,0 0.292218,0.68023 0.375378,1.6016"
       id="path1419"
       inkscape:connector-curvature="0" />
  </g>
  <g
     inkscape:groupmode="layer"
     id="layer3"
     inkscape:label="Layer 3"
     style="display:none"
     transform="translate(12.079031,2.3026314)" />
  <g
     inkscape:label="Layer 1"
     inkscape:groupmode="layer"
     id="layer1"
     style="display:none"
     transform="translate(12.079031,2.3026314)">
    <text
       xml:space="preserve"
       style="font-style:normal;font-variant:normal;font-weight:normal;font-stretch:normal;font-size:10.58333302px;line-height:1.25;font-family:Anton;-inkscape-font-specification:Anton;letter-spacing:0px;word-spacing:0px;fill:#000000;fill-opacity:1;stroke:none;stroke-width:0.26458332"
       x="-61.492352"
       y="109.31354"
       id="text817"><tspan
         sodipodi:role="line"
         id="tspan815"
         x="-61.492352"
         y="109.31354"
         style="font-size:35.27777863px;stroke-width:0.26458332">BAQUARA</tspan></text>
  </g>
  <g
     style="display:none"
     transform="translate(12.079031,2.3026314)"
     inkscape:label="Layer 2 copy"
     id="g1449"
     inkscape:groupmode="layer">
    <path
       inkscape:connector-curvature="0"
       id="path1447"
       d="m 1.5866112,28.545943 3.099052,-1.33535 0.696609,-0.1125 0.76707,-0.90293 0.894304,0.67987 0.388485,1.17172 0.470528,-0.12617 1.626405,0.58784 0.9597778,-0.791709 c 0,0 -0.216992,1.957949 0.394229,0.695819 0.611221,-1.262139 0.611221,-1.262139 0.611221,-1.262139 l 0.600538,-0.472501 0.752397,-0.735639 0.364767,-1.017931 1.017541,-0.688149 -0.04743,-0.729281 -1.29298,0.213341 -0.356701,-0.943072 -0.554117,-0.904888 -0.185396,-0.46942 -1.434902,-0.98019 3.48028,0.0312 0.777535,0.13252 0.325669,-0.88839 2.600393,-1.80982 0.681393,-0.613241 0.07778,-1.148629 1.140017,-0.2314 0.35706,0.5572 -0.09589,0.91585 0.924122,-0.0401 0.52445,0.79426 0.02562,0.48273 -0.208644,0.82748 0.122514,1.67357 0.816569,0.99741 0.949599,1.05126 1.282645,0.41238 1.366816,-0.989451 1.339192,-1.36781 1.782989,-0.4338 1.186154,-0.16947 -0.574711,-0.86985 0.138976,-0.42303 1.504752,-0.41825 1.185574,-0.007 1.076234,0.21393 0.904854,-0.62656 1.274048,-0.11875 0.961357,-0.895949 0.566171,-2.70361 0.45427,-1.90252 1.279279,0.843809 0.48768,1.486591 1.163767,1.7949 0.960712,0.26151 0.973164,0.421539 0.263932,1.813772 0.173954,0.813949 0.715731,0.17908 1.751815,0.613281 1.313322,0.35985 3.632243,-0.01 2.111604,0.29437 1.164843,0.637321 0.520032,-0.49569 0.833294,0.340449 1.06281,0.97615 0.942809,0.25154 0.49665,-0.85994 5.294381,0.21248 2.354429,-0.95803 5.244331,1.96186 2.68085,0.86852 2.79469,-0.42267 2.87946,5.59307 -1.25608,4.8322 -1.55558,2.5536 -0.70324,2.799883 -1.0052,2.227913 -0.42439,0.188085 -0.393871,0.966214 0.51581,2.918298 1.01683,2.353423 0.187831,3.302491 -0.30211,1.638843 -0.0257,1.564736 0.42407,1.414592 -0.84186,2.837058 -0.64097,2.367883 0.24865,0.927282 -1.24129,1.015318 -0.27945,1.336066 -1.84537,0.643409 -2.744641,0.721199 -1.03394,1.122614 -0.88767,0.950491 -1.370509,0.975681 -1.44487,1.30755 -1.25119,1.64092 -0.93712,1.92771 -0.055,1.06824 0.19061,1.37337 0.58744,1.86038 0.15071,2.11085 -1.39117,2.00516 -0.54892,2.26891 -0.49894,1.73592 -1.18582,1.99486 -1.19293,1.41766 -0.23286,1.23451 -1.33847,2.64397 -0.42637,-0.53862 -0.10152,-0.87767 0.59666,-0.87246 -0.94762,-0.32455 -1.199202,-0.82052 -1.909706,-0.70475 -2.216608,-0.74106 -0.345359,0.5379 -2.457754,-1.4184 -1.447315,0.74432 3.062589,-5.73236 2.622597,-2.7802 0.222383,-2.04799 -1.336,-1.2739 -1.053703,0.38637 -0.171229,-1.69004 -0.259589,-1.57729 -1.154003,-0.20969 -1.227259,0.40338 -1.054993,-2.55085 -0.660953,-0.63907 -1.35085,-0.1126 -0.760353,0.64918 -1.772662,0.03 -0.475803,0.21664 -0.349129,-1.90952 -0.803225,-1.668698 -0.06332,-0.843616 -0.550285,-0.851013 0.3373,-3.097679 -0.870316,-1.309706 -1.426188,-0.448643 -0.423317,-0.9695 -0.145973,-0.821451 -3.576744,0.825722 -1.334956,-2.268124 0.0016,-1.321073 -0.54414,-1.144752 -1.257325,-0.538216 -1.479314,0.292842 -0.984255,-0.240904 -0.876512,-0.224564 -1.51096,-0.544503 -1.926207,0.175028 -2.649143,-1.025607 -0.794973,-0.973669 -0.573343,-1.418865 -0.160937,-1.262737 -8.1147388,4.74708 -3.204692,-2.36434 -4.719853,0.271181 -1.95148901,-2.132339 -0.182853,-4.001532 1.841536,-4.366238 c 0,0 3.25410301,6.160781 3.10346001,-1.262232 -0.15065,-7.42301 -0.15065,-7.42301 -0.15065,-7.42301 l -2.139224,-2.942581 1.690403,-0.55711 -0.243939,-0.8547 -1.341698,0.19687 c 0,0 -0.239464,-0.55743 -0.307611,-1.31246"
       style="fill:#ffe100;fill-opacity:1;stroke:none;stroke-width:0.26458332px;stroke-linecap:butt;stroke-linejoin:miter;stroke-opacity:1" />
  </g>
  <g
     inkscape:groupmode="layer"
     id="layer4"
     inkscape:label="Layer 4"
     style="display:inline"
     transform="translate(-56.763802,29.302671)">
    <text
       xml:space="preserve"
       style="font-style:normal;font-variant:normal;font-weight:normal;font-stretch:normal;font-size:10.58333302px;line-height:0.80000001;font-family:Anton;-inkscape-font-specification:Anton;letter-spacing:0px;word-spacing:0px;fill:#00cb00;fill-opacity:1;stroke:none;stroke-width:0.26458332"
       x="77.47831"
       y="44.823727"
       id="text1443"><tspan
         sodipodi:role="line"
         id="tspan1441"
         x="77.47831"
         y="44.823727"
         style="font-size:70.55555725px;line-height:0.80000001;fill:#00cb00;fill-opacity:1;stroke-width:0.26458332">B<tspan
   style="font-size:35.27778244px;line-height:0.80000001;fill:#00cb00;fill-opacity:1"
   id="tspan1527">AC</tspan></tspan><tspan
         sodipodi:role="line"
         x="77.47831"
         y="77.429825"
         style="font-size:70.55555725px;line-height:0.80000001;fill:#00cb00;fill-opacity:1;stroke-width:0.26458332"
         id="tspan1651"><tspan
           style="font-size:35.27778244px;line-height:0.80000001;fill:#00cb00;fill-opacity:1"
           id="tspan1653">UARA.</tspan></tspan><tspan
         sodipodi:role="line"
         x="77.47831"
         y="88.965202"
         style="line-height:0.80000001;fill:#00cb00;fill-opacity:1;stroke-width:0.26458332"
         id="tspan1445" /></text>
    <path
       transform="translate(68.844251,-26.999891)"
       inkscape:connector-curvature="0"
       id="path1447-3"
       d="m 1.5866112,28.545943 3.099052,-1.33535 0.696609,-0.1125 0.76707,-0.90293 0.894304,0.67987 0.388485,1.17172 0.470528,-0.12617 1.626405,0.58784 0.9597778,-0.791709 c 0,0 -0.216992,1.957949 0.394229,0.695819 0.611221,-1.262139 0.611221,-1.262139 0.611221,-1.262139 l 0.600538,-0.472501 0.752397,-0.735639 0.364767,-1.017931 1.017541,-0.688149 -0.04743,-0.729281 -1.29298,0.213341 -0.356701,-0.943072 -0.554117,-0.904888 -0.185396,-0.46942 -1.434902,-0.98019 3.48028,0.0312 0.777535,0.13252 0.325669,-0.88839 2.600393,-1.80982 0.681393,-0.613241 0.07778,-1.148629 1.140017,-0.2314 0.35706,0.5572 -0.09589,0.91585 0.924122,-0.0401 0.52445,0.79426 0.02562,0.48273 -0.208644,0.82748 0.122514,1.67357 0.816569,0.99741 0.949599,1.05126 1.282645,0.41238 1.366816,-0.989451 1.339192,-1.36781 1.782989,-0.4338 1.186154,-0.16947 -0.574711,-0.86985 0.138976,-0.42303 1.504752,-0.41825 1.185574,-0.007 1.076234,0.21393 0.904854,-0.62656 1.274048,-0.11875 0.961357,-0.895949 0.566171,-2.70361 0.45427,-1.90252 1.279279,0.843809 0.48768,1.486591 1.163767,1.7949 0.960712,0.26151 0.973164,0.421539 0.263932,1.813772 0.173954,0.813949 0.715731,0.17908 1.751815,0.613281 1.313322,0.35985 3.632243,-0.01 2.111604,0.29437 1.164843,0.637321 0.520032,-0.49569 0.833294,0.340449 1.06281,0.97615 0.942809,0.25154 0.49665,-0.85994 5.294381,0.21248 2.354429,-0.95803 5.244331,1.96186 2.68085,0.86852 2.79469,-0.42267 2.87946,5.59307 -1.25608,4.8322 -1.55558,2.5536 -0.70324,2.799883 -1.0052,2.227913 -0.42439,0.188085 -0.393871,0.966214 0.51581,2.918298 1.01683,2.353423 0.187831,3.302491 -0.30211,1.638843 -0.0257,1.564736 0.42407,1.414592 -0.84186,2.837058 -0.64097,2.367883 0.24865,0.927282 -1.24129,1.015318 -0.27945,1.336066 -1.84537,0.643409 -2.744641,0.721199 -1.03394,1.122614 -0.88767,0.950491 -1.370509,0.975681 -1.44487,1.30755 -1.25119,1.64092 -0.93712,1.92771 -0.055,1.06824 0.19061,1.37337 0.58744,1.86038 0.15071,2.11085 -1.39117,2.00516 -0.54892,2.26891 -0.49894,1.73592 -1.18582,1.99486 -1.19293,1.41766 -0.23286,1.23451 -1.33847,2.64397 -0.42637,-0.53862 -0.10152,-0.87767 0.59666,-0.87246 -0.94762,-0.32455 -1.199202,-0.82052 -1.909706,-0.70475 -2.216608,-0.74106 -0.345359,0.5379 -2.457754,-1.4184 -1.447315,0.74432 3.062589,-5.73236 2.622597,-2.7802 0.222383,-2.04799 -1.336,-1.2739 -1.053703,0.38637 -0.171229,-1.69004 -0.259589,-1.57729 -1.154003,-0.20969 -1.227259,0.40338 -1.054993,-2.55085 -0.660953,-0.63907 -1.35085,-0.1126 -0.760353,0.64918 -1.772662,0.03 -0.475803,0.21664 -0.349129,-1.90952 -0.803225,-1.668698 -0.06332,-0.843616 -0.550285,-0.851013 0.3373,-3.097679 -0.870316,-1.309706 -1.426188,-0.448643 -0.423317,-0.9695 -0.145973,-0.821451 -3.576744,0.825722 -1.334956,-2.268124 0.0016,-1.321073 -0.54414,-1.144752 -1.257325,-0.538216 -1.479314,0.292842 -0.984255,-0.240904 -0.876512,-0.224564 -1.51096,-0.544503 -1.926207,0.175028 -2.649143,-1.025607 -0.794973,-0.973669 -0.573343,-1.418865 -0.160937,-1.262737 -8.1147388,4.74708 -3.204692,-2.36434 -4.719853,0.271181 -1.95148901,-2.132339 -0.182853,-4.001532 1.841536,-4.366238 c 0,0 3.25410301,6.160781 3.10346001,-1.262232 -0.15065,-7.42301 -0.15065,-7.42301 -0.15065,-7.42301 l -2.139224,-2.942581 1.690403,-0.55711 -0.243939,-0.8547 -1.341698,0.19687 c 0,0 -0.239464,-0.55743 -0.307611,-1.31246"
       style="display:inline;fill:#ffe100;fill-opacity:1;stroke:none;stroke-width:0.26458332px;stroke-linecap:butt;stroke-linejoin:miter;stroke-opacity:1"
       clip-path="url(#clipPath850)" />
  </g>
</svg>
